<svg width="104" height="104" viewBox="0 0 104 104" fill="none" xmlns="http://www.w3.org/2000/svg">
<path fill-rule="evenodd" clip-rule="evenodd" d="M67.6 12.675C67.6 9.8031 65.2719 7.47498 62.4 7.47498H59.15C56.2781 7.47498 53.95 9.8031 53.95 12.675V13.7312H50.05V12.675C50.05 9.8031 47.7219 7.47498 44.85 7.47498H41.6C38.7281 7.47498 36.4 9.8031 36.4 12.675V13.7312H11.9437V48.2625H20.8V59.15C13.6203 59.15 7.79999 64.9703 7.79999 72.15V88.725C7.79999 93.0328 11.2922 96.525 15.6 96.525H20.8H26H78H83.2H88.4C92.7078 96.525 96.2 93.0328 96.2 88.725V72.15C96.2 64.9703 90.3797 59.15 83.2 59.15V48.2625H92.055V13.7312H67.6V12.675ZM36.4 18.9312H17.1437V43.0625H20.8V41.925C20.8 32.7561 27.58 25.1709 36.4 23.9093V18.9312ZM41.6 23.725H44.85V12.675H41.6V23.725ZM50.05 28.925H39C38.1096 28.925 37.2401 29.0145 36.4 29.185V46.0687C36.4 51.5094 39.7422 56.1695 44.4855 58.1077C45.402 54.8191 48.4192 52.4062 52 52.4062C55.5808 52.4062 58.598 54.8191 59.5145 58.1077C64.2578 56.1695 67.6 51.5094 67.6 46.0687V29.185C66.7599 29.0145 65.8904 28.925 65 28.925H53.95H50.05ZM50.05 23.725V18.9312H53.95V23.725H50.05ZM62.4 23.725H59.15V12.675H62.4V23.725ZM67.6 18.9312V23.9093C76.42 25.1709 83.2 32.7561 83.2 41.925V43.0625H86.855V18.9312H67.6ZM78 91.325V81.9252C71.0481 84.4845 63.6883 85.8 56.2587 85.8H48.0657C40.5205 85.8 33.0472 84.4432 26 81.8048V91.325H78ZM26 76.2168C32.9921 79.1088 40.4894 80.6 48.0657 80.6H56.2587C63.718 80.6 71.1006 79.1545 78 76.3498V59.15V41.925C78 37.6719 75.9576 33.8958 72.8 31.524V46.0687C72.8 54.3253 67.302 61.2978 59.7673 63.5247C59.4047 67.4958 56.0656 70.6062 52 70.6062C47.9344 70.6062 44.5953 67.4958 44.2326 63.5247C36.698 61.2978 31.2 54.3253 31.2 46.0687V31.524C28.0424 33.8958 26 37.6719 26 41.925V59.15V76.2168ZM20.8 91.325V74.5875H13V88.725C13 90.1609 14.164 91.325 15.6 91.325H20.8ZM13.5033 69.3875H20.8V64.35C17.4649 64.35 14.6186 66.4432 13.5033 69.3875ZM83.2 64.35V69.3875H90.4967C89.3814 66.4432 86.5351 64.35 83.2 64.35ZM91 74.5875H83.2V91.325H88.4C89.8359 91.325 91 90.1609 91 88.725V74.5875ZM52 65.4062C50.5641 65.4062 49.4 64.2422 49.4 62.8062V60.2062C49.4 58.7703 50.5641 57.6062 52 57.6062C53.4359 57.6062 54.6 58.7703 54.6 60.2062V62.8062C54.6 64.2422 53.4359 65.4062 52 65.4062Z" fill="#252849"/>
</svg>
