<svg width="104" height="104" viewBox="0 0 104 104" fill="none" xmlns="http://www.w3.org/2000/svg">
<path fill-rule="evenodd" clip-rule="evenodd" d="M29.3184 83.2H41.65V96.2H15.65C14.214 96.2 13.05 97.364 13.05 98.8C13.05 100.236 14.214 101.4 15.65 101.4H41.65H62.45H88.45C89.8859 101.4 91.05 100.236 91.05 98.8C91.05 97.364 89.8859 96.2 88.45 96.2H62.45V83.2H74.15C78.4578 83.2 81.95 79.7078 81.95 75.4V59.8C81.95 55.4922 78.4578 52 74.15 52H62.45V43.4656L71.888 42.8056C73.8333 42.6696 75.6571 41.8098 76.9999 40.3958L83.6278 33.4165C86.7806 30.0966 86.4094 24.7879 82.8253 21.9391L75.2905 15.9502C73.7639 14.7368 71.8383 14.1392 69.893 14.2753L62.45 14.7957V8.31998C62.45 5.16091 59.889 2.59998 56.73 2.59998H47.37C44.2109 2.59998 41.65 5.16094 41.65 8.31998V16.2502L33.4806 16.8215C29.1833 17.122 25.9432 20.8492 26.2437 25.1466L27.1505 38.1149C27.451 42.4122 31.1783 45.6523 35.4756 45.3518L41.65 44.9201V52H29.3184C27.3684 52 25.4891 52.7304 24.0509 54.0473L15.5325 61.8473C12.1558 64.9392 12.1558 70.2608 15.5325 73.3527L24.0509 81.1526C25.4891 82.4695 27.3684 83.2 29.3184 83.2ZM46.85 44.5564V52H57.25V43.8292L46.85 44.5564ZM46.85 15.8866L57.25 15.1594V8.31998C57.25 8.03279 57.0172 7.79998 56.73 7.79998H47.37C47.0828 7.79998 46.85 8.03279 46.85 8.31998V15.8866ZM57.25 96.2V83.2H46.85V96.2H57.25ZM74.15 57.2C75.5859 57.2 76.75 58.364 76.75 59.8V75.4C76.75 76.8359 75.5859 78 74.15 78H29.3184C28.6684 78 28.042 77.7565 27.5626 77.3175L19.0442 69.5175C17.9186 68.4869 17.9186 66.713 19.0442 65.6824L27.5626 57.8824C28.042 57.4435 28.6684 57.2 29.3184 57.2H65.05V67.6C65.05 69.0359 66.214 70.2 67.65 70.2C69.0859 70.2 70.25 69.0359 70.25 67.6V57.2H74.15ZM31.431 24.7838C31.3309 23.3514 32.4109 22.109 33.8433 22.0088L36.6771 21.8106L37.3568 31.5311C37.457 32.9635 38.6994 34.0435 40.1319 33.9434C41.5643 33.8432 42.6443 32.6008 42.5441 31.1683L41.8644 21.4479L70.2557 19.4626C70.9041 19.4173 71.546 19.6164 72.0549 20.0209L79.5897 26.0099C80.7844 26.9595 80.9081 28.729 79.8572 29.8357L73.2292 36.815C72.7816 37.2863 72.1737 37.5729 71.5253 37.6183L35.1129 40.1645C33.6804 40.2646 32.438 39.1846 32.3379 37.7522L31.431 24.7838Z" fill="#252849"/>
</svg>
