<svg width="24" height="24" viewBox="0 0 24 24" fill="none" xmlns="http://www.w3.org/2000/svg">
<path fill-rule="evenodd" clip-rule="evenodd" d="M1 19C1 20.6569 2.34315 22 4 22H20C21.6569 22 23 20.6569 23 19V8.97567C23 7.31882 21.6569 5.97567 20 5.97567H17.7796L17.3501 4.26822C17.0147 2.93477 15.8158 2.00002 14.4408 2.00002H9.55924C8.18424 2.00002 6.98526 2.93477 6.64986 4.26822L6.22038 5.97567H4C2.34315 5.97567 1 7.31882 1 8.97567V19ZM4 20C3.44772 20 3 19.5523 3 19V8.97567C3 8.42339 3.44771 7.97567 4 7.97567H6.68815C7.32981 7.97567 7.88934 7.53946 8.04586 6.91718L8.58944 4.75609C8.70125 4.31161 9.1009 4.00002 9.55924 4.00002H14.4408C14.8991 4.00002 15.2988 4.31161 15.4106 4.75609L15.9541 6.91718C16.1107 7.53946 16.6702 7.97567 17.3118 7.97567H20C20.5523 7.97567 21 8.42339 21 8.97567V19C21 19.5523 20.5523 20 20 20H4ZM12 12C13.1046 12 14 12.8955 14 14C14 15.1046 13.1046 16 12 16C10.8954 16 10 15.1046 10 14C10 12.8955 10.8954 12 12 12ZM12 10C14.2091 10 16 11.7909 16 14C16 16.2092 14.2091 18 12 18C9.79086 18 8 16.2092 8 14C8 11.7909 9.79086 10 12 10ZM18 11.0313C18.5523 11.0313 19 10.5836 19 10.0313C19 9.47899 18.5523 9.03127 18 9.03127C17.4477 9.03127 17 9.47899 17 10.0313C17 10.5836 17.4477 11.0313 18 11.0313Z" fill="#7C7E92"/>
<rect x="6.40625" y="5.96878" width="12" height="2" fill="#7C7E92"/>
</svg>
