<svg width="28" height="28" viewBox="0 0 28 28" fill="none" xmlns="http://www.w3.org/2000/svg">
<path fill-rule="evenodd" clip-rule="evenodd" d="M0.150717 14C0.150741 13.1322 0.854239 12.4287 1.72202 12.4287L12.0718 12.429L12.0715 2.07924C12.0715 1.21146 12.775 0.50796 13.6427 0.507936C14.5105 0.507911 15.214 1.21137 15.214 2.07915L15.2143 12.4291L25.5633 12.4294C26.4311 12.4294 27.1346 13.1329 27.1345 14.0007C27.1345 14.8685 26.431 15.572 25.5632 15.5719L15.2144 15.5716L15.2147 25.9204C15.2147 26.7882 14.5113 27.4917 13.6435 27.4917C12.7757 27.4918 12.0722 26.7883 12.0722 25.9205L12.0719 15.5716L1.72194 15.5713C0.854151 15.5712 0.150692 14.8677 0.150717 14Z" fill="#4CAF50"/>
</svg>
